<svg version="1.1" id="Layer_1" xmlns="http://www.w3.org/2000/svg" xmlns:xlink="http://www.w3.org/1999/xlink" x="0px" y="0px"
	 width="100%" viewBox="0 0 1254 1254" enable-background="new 0 0 1254 1254" xml:space="preserve">
<path fill="#FDFCFC" opacity="1.000000" stroke="none" 
	d="
M761.000000,1255.000000 
	C507.333344,1255.000000 254.166672,1255.000000 1.000000,1255.000000 
	C1.000000,837.000000 1.000000,419.000000 1.000000,1.000000 
	C419.000000,1.000000 837.000000,1.000000 1255.000000,1.000000 
	C1255.000000,419.000000 1255.000000,837.000000 1255.000000,1255.000000 
	C1090.500000,1255.000000 926.000000,1255.000000 761.000000,1255.000000 
M978.050720,128.340683 
	C973.719727,128.245361 969.388794,128.066895 965.057800,128.066620 
	C743.411011,128.052246 521.764160,128.039276 300.117340,128.097916 
	C290.297882,128.100510 280.403412,128.115753 270.671082,129.232971 
	C188.748062,138.637100 127.865944,206.706528 127.835510,289.071869 
	C127.752220,514.551758 127.802536,740.031616 127.895020,965.511536 
	C127.898361,973.648254 128.299850,981.877625 129.536011,989.906738 
	C141.578857,1068.128296 208.851212,1125.865234 288.480804,1125.914429 
	C514.627197,1126.054199 740.773743,1126.001831 966.920227,1125.934448 
	C1005.904419,1125.922852 1040.591187,1113.216431 1070.402832,1088.255737 
	C1107.658936,1057.061890 1127.083374,1016.929138 1127.187988,968.155884 
	C1127.411255,864.165649 1127.271729,760.174683 1127.278687,656.184021 
	C1127.286865,533.361633 1127.402710,410.539124 1127.242065,287.716949 
	C1127.182861,242.419586 1110.440186,203.873459 1077.792603,172.578171 
	C1050.226929,146.154449 1017.114746,131.509399 978.050720,128.340683 
z"/>
<path fill="#F89A04" opacity="1.000000" stroke="none" 
	d="
M978.509277,128.403870 
	C1017.114746,131.509399 1050.226929,146.154449 1077.792603,172.578171 
	C1110.440186,203.873459 1127.182861,242.419586 1127.242065,287.716949 
	C1127.402710,410.539124 1127.286865,533.361633 1127.278687,656.184021 
	C1127.271729,760.174683 1127.411255,864.165649 1127.187988,968.155884 
	C1127.083374,1016.929138 1107.658936,1057.061890 1070.402832,1088.255737 
	C1040.591187,1113.216431 1005.904419,1125.922852 966.920227,1125.934448 
	C740.773743,1126.001831 514.627197,1126.054199 288.480804,1125.914429 
	C208.851212,1125.865234 141.578857,1068.128296 129.536011,989.906738 
	C128.299850,981.877625 127.898361,973.648254 127.895020,965.511536 
	C127.802536,740.031616 127.752220,514.551758 127.835510,289.071869 
	C127.865944,206.706528 188.748062,138.637100 270.671082,129.232971 
	C280.403412,128.115753 290.297882,128.100510 300.117340,128.097916 
	C521.764160,128.039276 743.411011,128.052246 965.057800,128.066620 
	C969.388794,128.066895 973.719727,128.245361 978.509277,128.403870 
M673.499939,351.542999 
	C736.664185,351.528412 799.828369,351.515320 862.992615,351.493469 
	C865.324890,351.492645 867.673157,351.563263 869.986145,351.327820 
	C875.024536,350.814972 878.191162,347.197784 878.103333,342.297211 
	C878.015015,337.374451 874.717163,333.788147 869.774109,333.400909 
	C867.785767,333.245087 865.776184,333.351257 863.776306,333.351288 
	C747.278809,333.354462 630.781311,333.411377 514.283875,333.341003 
	C456.910431,333.306366 408.522980,366.416840 387.899109,420.062103 
	C378.291931,445.051636 376.934875,470.983307 378.832001,497.314575 
	C384.236420,572.323975 444.432648,625.873840 515.094971,625.063538 
	C592.249939,624.178772 669.422974,624.812256 746.587891,624.932861 
	C753.546509,624.943726 760.663635,625.301086 767.435120,626.760071 
	C811.628906,636.281860 839.584595,663.811035 853.988892,705.973511 
	C857.824402,717.200500 859.610657,728.773804 859.379761,741.258911 
	C857.040771,741.258911 855.080750,741.258850 853.120728,741.258972 
	C702.957581,741.264404 552.794434,741.272583 402.631287,741.266846 
	C395.501678,741.266541 391.455261,744.502136 391.450745,750.375305 
	C391.446564,755.799561 395.442200,759.415405 401.784180,759.413330 
	C487.781097,759.385193 573.778076,759.344360 659.774780,759.197449 
	C663.566040,759.190979 664.928589,759.991333 664.907776,764.133057 
	C664.720032,801.464661 664.771973,838.797424 664.753723,876.129883 
	C664.752869,877.907532 664.753662,879.685181 664.753662,882.017700 
	C652.452637,882.017700 640.826050,882.017761 629.199402,882.017578 
	C549.201050,882.016541 469.202698,882.030762 389.204376,881.970642 
	C385.127777,881.967529 381.532806,882.499451 379.290558,886.315735 
	C375.326111,893.063171 380.192841,899.975342 388.970917,899.975891 
	C508.968414,899.982971 628.966492,900.175842 748.963074,899.839966 
	C784.242065,899.741272 814.504089,886.494995 839.185242,861.039307 
	C862.294556,837.204712 874.270935,808.296143 877.069824,775.571716 
	C879.162903,751.099365 879.203125,726.651123 872.076416,702.719055 
	C854.724854,644.451172 802.078918,605.431519 743.266418,606.626648 
	C693.788025,607.632019 644.272705,606.816956 594.773743,606.807861 
	C592.992249,606.807556 591.210693,606.807861 589.359985,606.807861 
	C589.359985,567.033264 589.359985,527.827454 589.359985,488.168884 
	C591.768433,488.168884 593.738159,488.169189 595.707886,488.168854 
	C660.706482,488.158295 725.705078,488.151886 790.703674,488.133820 
	C805.036621,488.129822 819.370239,488.156403 833.702209,488.024841 
	C839.966248,487.967346 843.580078,484.122681 843.226501,478.364166 
	C842.880127,472.724609 839.245911,470.086700 831.814758,470.086975 
	C688.984253,470.092316 546.153809,470.098145 403.323303,470.103851 
	C401.217590,470.103943 399.111877,470.103851 396.343475,470.103851 
	C396.895630,464.125732 397.165924,458.823181 397.902710,453.586273 
	C406.194580,394.651337 454.108734,350.843689 513.504456,351.401611 
	C566.498657,351.899445 619.501099,351.530365 673.499939,351.542999 
z"/>
<path fill="#FDFBF7" opacity="1.000000" stroke="none" 
	d="
M672.999878,351.543457 
	C619.501099,351.530365 566.498657,351.899445 513.504456,351.401611 
	C454.108734,350.843689 406.194580,394.651337 397.902710,453.586273 
	C397.165924,458.823181 396.895630,464.125732 396.343475,470.103851 
	C399.111877,470.103851 401.217590,470.103943 403.323303,470.103851 
	C546.153809,470.098145 688.984253,470.092316 831.814758,470.086975 
	C839.245911,470.086700 842.880127,472.724609 843.226501,478.364166 
	C843.580078,484.122681 839.966248,487.967346 833.702209,488.024841 
	C819.370239,488.156403 805.036621,488.129822 790.703674,488.133820 
	C725.705078,488.151886 660.706482,488.158295 595.707886,488.168854 
	C593.738159,488.169189 591.768433,488.168884 589.359985,488.168884 
	C589.359985,527.827454 589.359985,567.033264 589.359985,606.807861 
	C591.210693,606.807861 592.992249,606.807556 594.773743,606.807861 
	C644.272705,606.816956 693.788025,607.632019 743.266418,606.626648 
	C802.078918,605.431519 854.724854,644.451172 872.076416,702.719055 
	C879.203125,726.651123 879.162903,751.099365 877.069824,775.571716 
	C874.270935,808.296143 862.294556,837.204712 839.185242,861.039307 
	C814.504089,886.494995 784.242065,899.741272 748.963074,899.839966 
	C628.966492,900.175842 508.968414,899.982971 388.970917,899.975891 
	C380.192841,899.975342 375.326111,893.063171 379.290558,886.315735 
	C381.532806,882.499451 385.127777,881.967529 389.204376,881.970642 
	C469.202698,882.030762 549.201050,882.016541 629.199402,882.017578 
	C640.826050,882.017761 652.452637,882.017700 664.753662,882.017700 
	C664.753662,879.685181 664.752869,877.907532 664.753723,876.129883 
	C664.771973,838.797424 664.720032,801.464661 664.907776,764.133057 
	C664.928589,759.991333 663.566040,759.190979 659.774780,759.197449 
	C573.778076,759.344360 487.781097,759.385193 401.784180,759.413330 
	C395.442200,759.415405 391.446564,755.799561 391.450745,750.375305 
	C391.455261,744.502136 395.501678,741.266541 402.631287,741.266846 
	C552.794434,741.272583 702.957581,741.264404 853.120728,741.258972 
	C855.080750,741.258850 857.040771,741.258911 859.379761,741.258911 
	C859.610657,728.773804 857.824402,717.200500 853.988892,705.973511 
	C839.584595,663.811035 811.628906,636.281860 767.435120,626.760071 
	C760.663635,625.301086 753.546509,624.943726 746.587891,624.932861 
	C669.422974,624.812256 592.249939,624.178772 515.094971,625.063538 
	C444.432648,625.873840 384.236420,572.323975 378.832001,497.314575 
	C376.934875,470.983307 378.291931,445.051636 387.899109,420.062103 
	C408.522980,366.416840 456.910431,333.306366 514.283875,333.341003 
	C630.781311,333.411377 747.278809,333.354462 863.776306,333.351288 
	C865.776184,333.351257 867.785767,333.245087 869.774109,333.400909 
	C874.717163,333.788147 878.015015,337.374451 878.103333,342.297211 
	C878.191162,347.197784 875.024536,350.814972 869.986145,351.327820 
	C867.673157,351.563263 865.324890,351.492645 862.992615,351.493469 
	C799.828369,351.515320 736.664185,351.528412 672.999878,351.543457 
M747.429810,882.017273 
	C818.172485,880.960449 861.875366,820.333130 859.397705,759.693359 
	C800.695984,759.693359 741.988892,759.693359 683.092407,759.693359 
	C683.092407,800.675659 683.092407,841.202454 683.092407,882.018982 
	C704.497131,882.018982 725.472229,882.018982 747.429810,882.017273 
M570.956543,598.395081 
	C570.956543,561.794006 570.956543,525.192993 570.956543,488.448944 
	C512.613953,488.448944 454.881195,488.448944 396.828094,488.448944 
	C396.317627,500.767792 398.913513,512.222168 402.058319,523.639221 
	C414.333038,568.201538 455.149963,602.871155 501.011353,605.939331 
	C523.577759,607.449097 546.306519,606.533997 568.961975,606.693970 
	C569.421448,606.697205 569.882874,606.429199 570.955139,606.099854 
	C570.955139,603.920532 570.955139,601.641968 570.956543,598.395081 
z"/>
<path fill="#F89A05" opacity="1.000000" stroke="none" 
	d="
M746.938599,882.018127 
	C725.472229,882.018982 704.497131,882.018982 683.092407,882.018982 
	C683.092407,841.202454 683.092407,800.675659 683.092407,759.693359 
	C741.988892,759.693359 800.695984,759.693359 859.397705,759.693359 
	C861.875366,820.333130 818.172485,880.960449 746.938599,882.018127 
z"/>
<path fill="#F89A05" opacity="1.000000" stroke="none" 
	d="
M570.955811,598.879272 
	C570.955139,601.641968 570.955139,603.920532 570.955139,606.099854 
	C569.882874,606.429199 569.421448,606.697205 568.961975,606.693970 
	C546.306519,606.533997 523.577759,607.449097 501.011353,605.939331 
	C455.149963,602.871155 414.333038,568.201538 402.058319,523.639221 
	C398.913513,512.222168 396.317627,500.767792 396.828094,488.448944 
	C454.881195,488.448944 512.613953,488.448944 570.956543,488.448944 
	C570.956543,525.192993 570.956543,561.794006 570.955811,598.879272 
z"/>
</svg>